<svg width="225" height="32" viewBox="0 0 225 32" fill="none" xmlns="http://www.w3.org/2000/svg">
  <path
    d="M194.148 25.5252C196.777 25.5252 198.32 24.1615 199.091 22.3782H199.477V25.1755H203.263V0H199.372V10.245H198.986C198.18 8.56666 196.672 7.30791 194.078 7.30791H193.973C190.221 7.30791 187.837 10.35 187.837 15.49V17.448C187.837 22.623 190.116 25.5252 194.078 25.5252H194.148ZM195.34 21.9237C192.886 21.9237 191.694 20.2803 191.694 17.2033V15.6298C191.694 12.5528 192.886 10.9094 195.34 10.9094H195.48C198.039 10.9094 199.372 12.5878 199.372 15.6298V17.2033C199.372 20.3152 198.039 21.9237 195.48 21.9237H195.34ZM218.22 21.7489C217.273 21.7489 217.063 21.4691 217.063 20.63V0H206.931V3.42666H213.171V20.2103C213.171 23.1125 215.029 25.1755 218.185 25.1755H224.39V21.7489H218.22Z"
    fill="#030303" />
  <path
    d="M141.926 12.8361C144.065 12.1018 145.257 10.5284 145.257 8.01077V7.73106C145.257 3.81487 142.627 1.50711 137.964 1.50711H130.076V25.3539H138.841C143.434 25.3539 146.133 23.0462 146.133 18.8852V18.6404C146.133 15.6333 144.555 13.8851 141.926 13.2557V12.8361ZM138.035 5.10864C140.559 5.10864 141.4 5.94777 141.4 8.11568V8.25554C141.4 10.5633 140.559 11.4724 138.035 11.4724H133.898V5.10864H138.035ZM142.277 18.4656C142.277 20.8433 141.4 21.7524 138.911 21.7524H133.898V15.039H138.911C141.4 15.039 142.277 15.9481 142.277 18.2908V18.4656ZM160.514 7.83597V17.8362C160.514 20.4237 159.111 22.102 156.447 22.102H156.307C154.413 22.102 153.151 21.0881 153.151 18.5705V7.83597H149.26V18.8852C149.26 23.2909 151.609 25.7036 155.079 25.7036H155.22C157.604 25.7036 159.322 24.5846 160.128 22.7664H160.514V25.3539H164.405V7.83597H160.514ZM178.067 3.19998V7.92396H182.867V3.19998H178.067ZM179.226 21.9272C178.315 21.9272 178.105 21.6475 178.105 20.8083V7.83597H167.903V11.2976H174.213V20.3887C174.213 23.2909 176.072 25.3539 179.226 25.3539H184.451V21.9272H179.226Z"
    fill="#56B84A" />
  <path fill-rule="evenodd" clip-rule="evenodd"
    d="M44.7333 8.53335H52.2V1.06668H48.4666V4.80001H44.7333V8.53335ZM61.2525 26.6667C63.7257 26.6667 65.6797 26.0775 67.1145 24.8991C68.5493 23.7206 69.2667 22.0674 69.2667 19.9392V8.53332H64.6791V19.3376C64.6791 20.3753 64.3676 21.1843 63.7446 21.7647C63.1404 22.3451 62.3098 22.6353 61.2525 22.6353C60.1953 22.6353 59.3552 22.3451 58.7322 21.7647C58.1281 21.1843 57.826 20.3753 57.826 19.3376V8.53332H53.2667V19.9392C53.2667 22.0674 53.9747 23.7206 55.3906 24.8991C56.8254 26.0775 58.7794 26.6667 61.2525 26.6667ZM112.013 16.2881C112.013 16.9624 111.965 17.7154 111.869 18.5471H99.0817C99.1296 19.6036 99.5127 20.424 100.231 21.0084C100.95 21.5928 101.919 21.885 103.141 21.885C104.817 21.885 105.895 21.3793 106.373 20.3678H111.761C111.498 21.9637 110.564 23.2674 108.96 24.2789C107.379 25.2679 105.44 25.7624 103.141 25.7624C100.195 25.7624 97.8724 24.9982 96.1722 23.4697C94.472 21.9412 93.6219 19.8283 93.6219 17.131C93.6219 14.4787 94.472 12.3882 96.1722 10.8598C97.8724 9.3088 100.135 8.53332 102.961 8.53332C105.643 8.53332 107.822 9.25261 109.499 10.6912C111.175 12.1297 112.013 13.9954 112.013 16.2881ZM99.0817 15.344H106.589C106.565 14.2651 106.242 13.4334 105.619 12.849C104.997 12.2646 104.099 11.9724 102.925 11.9724C101.752 11.9724 100.818 12.2871 100.123 12.9165C99.4529 13.5234 99.1056 14.3326 99.0817 15.344ZM83.6019 8.56704C85.9726 8.56704 87.8883 9.35376 89.3491 10.9272C90.8337 12.5006 91.5761 14.5686 91.5761 17.131C91.5761 19.671 90.8218 21.7389 89.3131 23.3349C87.8045 24.9083 85.8528 25.695 83.4582 25.695C82.2129 25.695 81.0994 25.4365 80.1176 24.9195C79.1358 24.4025 78.4174 23.7507 77.9624 22.964V32H72.4667V8.56704H77.9624V11.3318C78.4174 10.5226 79.1597 9.8595 80.1895 9.34252C81.2192 8.82553 82.3566 8.56704 83.6019 8.56704ZM81.8777 21.413C83.075 21.413 84.0568 21.0197 84.8231 20.2329C85.5894 19.4237 85.9726 18.3898 85.9726 17.131C85.9726 15.8723 85.5894 14.8495 84.8231 14.0628C84.0568 13.2761 83.075 12.8827 81.8777 12.8827C80.6325 12.8827 79.6267 13.2761 78.8604 14.0628C78.0941 14.8495 77.711 15.8723 77.711 17.131C77.711 18.4122 78.0941 19.4462 78.8604 20.2329C79.6507 21.0197 80.6564 21.413 81.8777 21.413ZM115.157 8.53332V25.2567H120.652V18.9854C120.652 15.3665 122.173 13.5571 125.214 13.5571C125.669 13.5571 126.22 13.5908 126.867 13.6582V8.87049C126.484 8.78058 126.005 8.73562 125.43 8.73562C124.328 8.73562 123.323 9.06155 122.413 9.7134C121.527 10.3428 120.94 11.2419 120.652 12.4107V8.53332H115.157ZM44.5672 12.0693C47.1714 13.1989 49.9943 14.4234 50.8872 17.8749C51.7256 21.1162 50.2833 23.5833 48.6513 24.8976C45.2974 27.5987 37.0246 27.7067 33 21.6564L36.3538 18.9553C38.5897 22.1966 44.1795 23.8172 45.8564 20.576C46.9316 17.4587 44.6462 16.59 41.7971 15.5069C38.8051 14.3695 35.1914 12.9958 34.1954 8.53332H39.2998C39.901 9.86516 41.0113 10.4016 43.0615 11.3924C43.5437 11.6253 44.0511 11.8455 44.5672 12.0693Z"
    fill="#030303" />
  <rect width="26" height="26" rx="2" transform="matrix(-1 0 0 1 26 1)" fill="#030303" />
  <path d="M10.3086 22.1649H20.5261V11.9474H15.4174V17.0561H10.3086V22.1649Z" fill="white" />
  <path d="M4.83496 6.47372V11.5825H9.94373V6.47372H4.83496Z" fill="#56B84A" />
</svg>